<?xml version="1.0" encoding="UTF-8"?>
<svg version="1.1" xmlns="http://www.w3.org/2000/svg" width="287" height="86">
<path d="M0 0 C19.14 0 38.28 0 58 0 C58.1546875 12.065625 58.1546875 12.065625 58.3125 24.375 C58.35802002 26.89431152 58.40354004 29.41362305 58.45043945 32.00927734 C58.46506001 34.03481724 58.47779696 36.06037197 58.48828125 38.0859375 C58.526651 39.62858276 58.526651 39.62858276 58.5657959 41.20239258 C58.57067409 49.38799596 56.6351194 55.98485174 51.05659485 62.14657593 C43.78168432 69.11722935 36.81373549 70.50150103 26.93359375 70.41992188 C18.02373533 70.09456188 12.5403489 66.83110653 5.82421875 61.26953125 C0.13448291 54.19086631 -0.56526979 47.00418715 -0.390625 38.18359375 C-0.38659668 37.20974731 -0.38256836 36.23590088 -0.37841797 35.23254395 C-0.3576682 31.63400119 -0.30182423 28.0357294 -0.25 24.4375 C-0.1675 16.373125 -0.085 8.30875 0 0 Z " fill="#0B2451" transform="translate(35,11)"/>
<path d="M0 0 C3.42375 -0.061875 6.8475 -0.12375 10.375 -0.1875 C11.45313965 -0.21481201 12.5312793 -0.24212402 13.64208984 -0.27026367 C14.91366943 -0.28150269 14.91366943 -0.28150269 16.2109375 -0.29296875 C17.08024902 -0.3086792 17.94956055 -0.32438965 18.84521484 -0.34057617 C19.55629395 -0.22818604 20.26737305 -0.1157959 21 0 C21.66 0.99 22.32 1.98 23 3 C23.639375 2.505 24.27875 2.01 24.9375 1.5 C30.15443003 -1.05523104 35.06051654 -0.54441641 40.5625 1 C41.7690625 1.495 41.7690625 1.495 43 2 C43 5 43 8 43 11 C43.268125 12.093125 43.53625 13.18625 43.8125 14.3125 C44 18 44 18 42.375 20.9375 C37.13021237 24.14264799 31.98625598 23.3440377 26 23 C24.68 23 23.36 23 22 23 C14.66666667 23 7.33333333 23 0 23 C0 15.41 0 7.82 0 0 Z M21 4 C21 5.65 21 7.3 21 9 C19.35 9 17.7 9 16 9 C16 10.65 16 12.3 16 14 C17.65 14 19.3 14 21 14 C21 15.98 21 17.96 21 20 C21.33 20 21.66 20 22 20 C22 18.02 22 16.04 22 14 C23.65 14 25.3 14 27 14 C26.360625 13.46375 25.72125 12.9275 25.0625 12.375 C22.61470596 9.55632807 22.33285388 7.66139268 22 4 C21.67 4 21.34 4 21 4 Z M10 6 C10 6.99 10 7.98 10 9 C10.66 9 11.32 9 12 9 C12 8.01 12 7.02 12 6 C11.34 6 10.68 6 10 6 Z M32 6 C32 6.66 32 7.32 32 8 C32.66 8 33.32 8 34 8 C34 7.34 34 6.68 34 6 C33.34 6 32.68 6 32 6 Z M10 14 C10 14.99 10 15.98 10 17 C10.66 17 11.32 17 12 17 C12 16.01 12 15.02 12 14 C11.34 14 10.68 14 10 14 Z M32 15 C32 15.66 32 16.32 32 17 C32.66 17 33.32 17 34 17 C34 16.34 34 15.68 34 15 C33.34 15 32.68 15 32 15 Z " fill="#09224F" transform="translate(167,41)"/>
<path d="M0 0 C3.0525 -0.0825 6.105 -0.165 9.25 -0.25 C10.20551758 -0.28641602 11.16103516 -0.32283203 12.14550781 -0.36035156 C18.37329147 -0.44205334 18.37329147 -0.44205334 21.625 1.8515625 C23 4 23 4 22.75 6.625 C22.5025 7.40875 22.255 8.1925 22 9 C21.8509288 11.4472136 21.8509288 11.4472136 24 15 C25.32 10.05 26.64 5.1 28 0 C32.62 0 37.24 0 42 0 C45 12.5 45 12.5 45 17 C45.66 17 46.32 17 47 17 C47 18.65 47 20.3 47 22 C43.04 22 39.08 22 35 22 C35 20.35 35 18.7 35 17 C34.505 19.475 34.505 19.475 34 22 C30.37 22 26.74 22 23 22 C22.67 21.34 22.34 20.68 22 20 C21.01 20.66 20.02 21.32 19 22 C16.9152832 22.22705078 16.9152832 22.22705078 14.55078125 22.1953125 C13.78677002 22.19031738 13.02275879 22.18532227 12.2355957 22.18017578 C10.78866333 22.15286377 10.78866333 22.15286377 9.3125 22.125 C6.239375 22.08375 3.16625 22.0425 0 22 C0 14.74 0 7.48 0 0 Z M11 6 C11 6.66 11 7.32 11 8 C11.66 8 12.32 8 13 8 C13 7.34 13 6.68 13 6 C12.34 6 11.68 6 11 6 Z M11 13 C11 13.99 11 14.98 11 16 C11.66 16 12.32 16 13 16 C12.67 15.01 12.34 14.02 12 13 C11.67 13 11.34 13 11 13 Z " fill="#09224F" transform="translate(121,15)"/>
<path d="M0 0 C7.59 0 15.18 0 23 0 C23 5 23 5 21.4375 7.0625 C19.74996572 8.87079889 19.74996572 8.87079889 20.25 11 C20.4975 11.66 20.745 12.32 21 13 C21.33333333 14.33333333 21.66666667 15.66666667 22 17 C22.99 17 23.98 17 25 17 C24.67 11.39 24.34 5.78 24 0 C27.96 0 31.92 0 36 0 C36 7.26 36 14.52 36 22 C24.12 22 12.24 22 0 22 C0 14.74 0 7.48 0 0 Z M11 5 C12 7 12 7 12 7 Z M11 15 C12 17 12 17 12 17 Z " fill="#092250" transform="translate(193,15)"/>
<path d="M0 0 C3.06273831 -0.05410136 6.12451452 -0.09372225 9.1875 -0.125 C10.48397461 -0.15013672 10.48397461 -0.15013672 11.80664062 -0.17578125 C16.3035886 -0.21024062 19.9403489 -0.1966048 24 2 C25 3 25 3 25.25 6.3125 C24.99337817 10.09767206 24.56295176 11.33025858 22 14 C22.99 14.33 23.98 14.66 25 15 C25.8125 18.1875 25.8125 18.1875 26 22 C24.1875 24.71875 24.1875 24.71875 21 27 C17.3744361 27.60531348 13.85017279 27.47238834 10.1875 27.3125 C8.71893555 27.27866211 8.71893555 27.27866211 7.22070312 27.24414062 C4.81222545 27.18539727 2.40690922 27.10332129 0 27 C-0.042721 25.33388095 -0.04063832 23.66617115 0 22 C0.33 21.67 0.66 21.34 1 21 C1.09975032 18.48863896 1.13882183 16.01096585 1.125 13.5 C1.12886719 12.79746094 1.13273437 12.09492187 1.13671875 11.37109375 C1.44390931 7.89571192 1.44390931 7.89571192 0 5 C-0.04063832 3.33382885 -0.042721 1.66611905 0 0 Z " fill="#F9F9FA" transform="translate(51,32)"/>
<path d="M0 0 C2.25 -0.3125 2.25 -0.3125 5 0 C7.125 2.25 7.125 2.25 9 5 C9.5775 5.763125 10.155 6.52625 10.75 7.3125 C11.1625 7.869375 11.575 8.42625 12 9 C12.66 6.36 13.32 3.72 14 1 C14.66 1 15.32 1 16 1 C18.17330391 4.25995586 18.24921459 5.22979966 18.1875 9 C18.18105469 9.86625 18.17460938 10.7325 18.16796875 11.625 C18 14 18 14 17 17 C17.66 17.99 18.32 18.98 19 20 C19.33 19.34 19.66 18.68 20 18 C21.32 18.33 22.64 18.66 24 19 C24.25046041 26.51381215 24.25046041 26.51381215 22.9375 29.0625 C21.4598371 32.11633667 22.37810772 34.76616013 23 38 C24.65 37.34 26.3 36.68 28 36 C27.58682778 40.82034262 25.61980085 42.90992611 22 46 C21.34 46 20.68 46 20 46 C19.34 48.31 18.68 50.62 18 53 C19.65 53 21.3 53 23 53 C22.63327178 55.65877957 22.20911362 56.79835472 20.25 58.6875 C18 60 18 60 15.5 60.375 C12.04117656 61.23970586 10.97878037 63.14176168 9 66 C10.65 66.33 12.3 66.66 14 67 C12.25 70.875 12.25 70.875 10 72 C8.56512772 72.15222614 7.1268431 72.27339931 5.6875 72.375 C1.69890648 72.77003642 -0.6188628 73.80682992 -4 76 C-7.3125 76.6875 -7.3125 76.6875 -10 77 C-9.67 76.01 -9.34 75.02 -9 74 C-8.38125 73.896875 -7.7625 73.79375 -7.125 73.6875 C-6.42375 73.460625 -5.7225 73.23375 -5 73 C-3.98308736 71.00854609 -2.98357352 69.00812926 -2 67 C0.1875 65.625 0.1875 65.625 2 65 C2.33 65.99 2.66 66.98 3 68 C5.23000641 65.76999359 5.33604772 64.99173512 5.875 62 C6.73087639 58.1899696 6.73087639 58.1899696 9.125 56.5 C9.74375 56.335 10.3625 56.17 11 56 C11.33 56.66 11.66 57.32 12 58 C14.37590142 54.29583874 14.20500286 51.07015427 14.125 46.75 C14.09792969 44.85507813 14.09792969 44.85507813 14.0703125 42.921875 C14.04710938 41.95765625 14.02390625 40.9934375 14 40 C14.99 40 15.98 40 17 40 C17.33 40.66 17.66 41.32 18 42 C18.57317048 37.12805089 16.67788826 34.93314839 14 31 C14 29.68 14 28.36 14 27 C15.32 27.66 16.64 28.32 18 29 C16.90335889 24.42840459 16.90335889 24.42840459 13.5625 21.3125 C12.716875 20.879375 11.87125 20.44625 11 20 C9.1875 18.3125 9.1875 18.3125 8 17 C8.33 16.01 8.66 15.02 9 14 C10.32 14.66 11.64 15.32 13 16 C10.44288249 12.0891144 8.72562435 9.48374957 4.8125 6.875 C1.70099207 4.80066138 0.98286296 3.53830666 0 0 Z M13 10 C14 12 14 12 14 12 Z " fill="#B08C2A" transform="translate(90,4)"/>
<path d="M0 0 C0.73605469 0.103125 1.47210938 0.20625 2.23046875 0.3125 C1.05171599 5.32219921 -1.872004 7.02698182 -5.859375 9.8203125 C-8.21093436 11.65731797 -9.5047795 13.62490254 -10.76953125 16.3125 C-9.11953125 15.9825 -7.46953125 15.6525 -5.76953125 15.3125 C-7.26081126 19.10848549 -9.42686566 21.02970399 -12.76953125 23.3125 C-13.75953125 23.3125 -14.74953125 23.3125 -15.76953125 23.3125 C-15.76953125 25.2925 -15.76953125 27.2725 -15.76953125 29.3125 C-14.44953125 28.6525 -13.12953125 27.9925 -11.76953125 27.3125 C-12.23168636 32.28066743 -13.67816405 34.49981379 -16.76953125 38.3125 C-16.43953125 39.3025 -16.10953125 40.2925 -15.76953125 41.3125 C-14.44953125 41.3125 -13.12953125 41.3125 -11.76953125 41.3125 C-11.74241059 42.74989513 -11.72308058 44.18743863 -11.70703125 45.625 C-11.69542969 46.42550781 -11.68382812 47.22601563 -11.671875 48.05078125 C-11.76953125 50.3125 -11.76953125 50.3125 -12.76953125 53.3125 C-11.39703162 55.98926547 -11.39703162 55.98926547 -9.76953125 58.3125 C-9.43953125 57.6525 -9.10953125 56.9925 -8.76953125 56.3125 C-7.28453125 56.8075 -7.28453125 56.8075 -5.76953125 57.3125 C-4.890625 59.52734375 -4.890625 59.52734375 -4.20703125 62.25 C-3.2617267 66.20031528 -3.2617267 66.20031528 -0.76953125 69.3125 C-0.43953125 67.9925 -0.10953125 66.6725 0.23046875 65.3125 C2.72372215 66.30980136 4.00514314 66.96324531 5.48046875 69.25 C6.23046875 71.3125 6.23046875 71.3125 6.23046875 74.3125 C7.88046875 74.6425 9.53046875 74.9725 11.23046875 75.3125 C11.23046875 75.9725 11.23046875 76.6325 11.23046875 77.3125 C9.99296875 76.879375 8.75546875 76.44625 7.48046875 76 C2.62747535 74.37204832 -2.287713 73.14343001 -7.265625 71.9609375 C-9.76953125 71.3125 -9.76953125 71.3125 -11.76953125 70.3125 C-11.76953125 69.3225 -11.76953125 68.3325 -11.76953125 67.3125 C-9.78953125 66.8175 -9.78953125 66.8175 -7.76953125 66.3125 C-10.65600482 61.86251991 -13.12089 60.51296935 -18.0625 59.18359375 C-19.76953125 58.3125 -19.76953125 58.3125 -20.5078125 56.22265625 C-20.59417969 55.59230469 -20.68054688 54.96195313 -20.76953125 54.3125 C-19.28453125 53.8175 -19.28453125 53.8175 -17.76953125 53.3125 C-17.10953125 53.6425 -16.44953125 53.9725 -15.76953125 54.3125 C-16.09953125 53.549375 -16.42953125 52.78625 -16.76953125 52 C-17.76953125 49.3125 -17.76953125 49.3125 -17.76953125 46.3125 C-18.34703125 46.23 -18.92453125 46.1475 -19.51953125 46.0625 C-22.50514794 45.06729444 -23.84414574 43.78799566 -25.76953125 41.3125 C-26.01953125 38.5625 -26.01953125 38.5625 -25.76953125 36.3125 C-24.11953125 36.9725 -22.46953125 37.6325 -20.76953125 38.3125 C-20.71506078 36.89626784 -20.67652617 35.47941809 -20.64453125 34.0625 C-20.62132812 33.27359375 -20.598125 32.4846875 -20.57421875 31.671875 C-20.78812431 29.08789583 -21.60826895 27.59756452 -22.76953125 25.3125 C-22.39453125 22.0625 -22.39453125 22.0625 -21.76953125 19.3125 C-20.44953125 19.3125 -19.12953125 19.3125 -17.76953125 19.3125 C-17.43953125 19.6425 -17.10953125 19.9725 -16.76953125 20.3125 C-15.86074153 17.08124765 -15.79998299 14.57902886 -16.33203125 11.3125 C-16.84881697 7.76211499 -16.6856857 5.47415484 -14.76953125 2.3125 C-13.77953125 1.9825 -12.78953125 1.6525 -11.76953125 1.3125 C-11.43953125 4.2825 -11.10953125 7.2525 -10.76953125 10.3125 C-10.25003906 9.590625 -9.73054688 8.86875 -9.1953125 8.125 C-8.49792969 7.196875 -7.80054687 6.26875 -7.08203125 5.3125 C-6.39753906 4.384375 -5.71304687 3.45625 -5.0078125 2.5 C-2.76953125 0.3125 -2.76953125 0.3125 0 0 Z " fill="#B08D2A" transform="translate(34.76953125,2.6875)"/>
<path d="M0 0 C3.3 0 6.6 0 10 0 C10.66 0.99 11.32 1.98 12 3 C12.33 2.01 12.66 1.02 13 0 C16.3 0 19.6 0 23 0 C22.67 7.26 22.34 14.52 22 22 C18.7 22 15.4 22 12 22 C11.34 21.01 10.68 20.02 10 19 C9.67 19.99 9.34 20.98 9 22 C6.03 22 3.06 22 0 22 C0 14.74 0 7.48 0 0 Z M8 15 C9 17 9 17 9 17 Z " fill="#09224F" transform="translate(169,15)"/>
<path d="M0 0 C7.59 0 15.18 0 23 0 C22.9175 3.0525 22.835 6.105 22.75 9.25 C22.73420898 10.20551758 22.71841797 11.16103516 22.70214844 12.14550781 C22.55085974 15.90861515 22.41000588 18.35570505 20.359375 21.578125 C17.25965317 23.44616928 15.10581102 23.53308084 11.5 23.5 C10.3759375 23.5103125 9.251875 23.520625 8.09375 23.53125 C5 23 5 23 2.640625 21.578125 C0.13494671 17.64063055 0.32561447 13.825447 0.25 9.25 C0.1675 6.1975 0.085 3.145 0 0 Z M11 5 C11 8.96 11 12.92 11 17 C11.66 17 12.32 17 13 17 C13 13.37 13 9.74 13 6 C12.34 5.67 11.68 5.34 11 5 Z " fill="#092250" transform="translate(143,41)"/>
<path d="M0 0 C3.3 0 6.6 0 10 0 C10.66 0.99 11.32 1.98 12 3 C12.33 2.01 12.66 1.02 13 0 C16.3 0 19.6 0 23 0 C22.67 7.26 22.34 14.52 22 22 C18.7 22 15.4 22 12 22 C11.34 20.68 10.68 19.36 10 18 C9.67 19.32 9.34 20.64 9 22 C6.03 22 3.06 22 0 22 C0 14.74 0 7.48 0 0 Z M13 5 C14 7 14 7 14 7 Z M8 15 C9 17 9 17 9 17 Z " fill="#09224F" transform="translate(231,15)"/>
<path d="M0 0 C2 1.5625 2 1.5625 3 2.5625 C3.25017242 5.67977443 3.18522148 8.8113657 3.1875 11.9375 C3.19974609 12.8140625 3.21199219 13.690625 3.22460938 14.59375 C3.22750977 15.85832031 3.22750977 15.85832031 3.23046875 17.1484375 C3.23457764 17.9223584 3.23868652 18.6962793 3.24291992 19.49365234 C3 21.5625 3 21.5625 1 24.5625 C-2.75128049 23.83443262 -6.47148327 23.01592078 -10.1875 22.125 C-11.23292969 21.87878906 -12.27835937 21.63257812 -13.35546875 21.37890625 C-16 20.5625 -16 20.5625 -18 18.5625 C-18.22552238 15.87087575 -18.3243329 13.31580256 -18.3125 10.625 C-18.32861328 9.89603516 -18.34472656 9.16707031 -18.36132812 8.41601562 C-18.36620418 3.09623454 -18.36620418 3.09623454 -16.66796875 0.62109375 C-11.6883216 -2.53929121 -5.18965925 -2.48671172 0 0 Z M-8 4.5625 C-9.25949049 5.59656673 -9.25949049 5.59656673 -9.09765625 7.84765625 C-9.08605469 8.76417969 -9.07445312 9.68070313 -9.0625 10.625 C-9.05347656 11.54410156 -9.04445312 12.46320312 -9.03515625 13.41015625 C-9.02355469 14.12042969 -9.01195312 14.83070312 -9 15.5625 C-8.34 15.5625 -7.68 15.5625 -7 15.5625 C-7 11.9325 -7 8.3025 -7 4.5625 C-7.33 4.5625 -7.66 4.5625 -8 4.5625 Z " fill="#09224F" transform="translate(139,42.4375)"/>
<path d="M0 0 C1.22847656 0.01289063 2.45695312 0.02578125 3.72265625 0.0390625 C6.9375 0.375 6.9375 0.375 9.9375 2.375 C10.125 5.5 10.125 5.5 9.9375 8.375 C6.9675 8.375 3.9975 8.375 0.9375 8.375 C0.9375 7.385 0.9375 6.395 0.9375 5.375 C0.2775 5.375 -0.3825 5.375 -1.0625 5.375 C-1.0625 9.335 -1.0625 13.295 -1.0625 17.375 C-0.4025 17.375 0.2575 17.375 0.9375 17.375 C0.6075 16.715 0.2775 16.055 -0.0625 15.375 C-0.102492 13.37539988 -0.10596799 11.37452758 -0.0625 9.375 C3.2375 9.375 6.5375 9.375 9.9375 9.375 C9.9375 13.335 9.9375 17.295 9.9375 21.375 C3.78222255 23.83711098 -1.32155918 24.47137633 -7.5 22 C-10.0625 20.375 -10.0625 20.375 -11.0625 18.375 C-11.23734831 16.0876402 -11.32970049 13.79358557 -11.375 11.5 C-11.41238281 10.26507813 -11.44976562 9.03015625 -11.48828125 7.7578125 C-11.0625 4.375 -11.0625 4.375 -9.484375 1.953125 C-6.1964102 -0.18935529 -3.89657041 -0.09014148 0 0 Z " fill="#09224F" transform="translate(266.0625,14.625)"/>
<path d="M0 0 C8.25 0 16.5 0 25 0 C25 3.63 25 7.26 25 11 C22.36 11 19.72 11 17 11 C17.33 14.96 17.66 18.92 18 23 C14.37 23 10.74 23 7 23 C7.33 19.04 7.66 15.08 8 11 C5.36 11 2.72 11 0 11 C0 7.37 0 3.74 0 0 Z " fill="#092250" transform="translate(211,41)"/>
<path d="M0 0 C0.598125 0.226875 1.19625 0.45375 1.8125 0.6875 C1.8125 1.6775 1.8125 2.6675 1.8125 3.6875 C0.4925 3.3575 -0.8275 3.0275 -2.1875 2.6875 C-2.1875 3.6775 -2.1875 4.6675 -2.1875 5.6875 C-0.27283633 5.56572312 -0.27283633 5.56572312 1.8125 4.6875 C3.58398372 2.20816803 3.58398372 2.20816803 4.8125 -0.3125 C5.8025 0.6775 6.7925 1.6675 7.8125 2.6875 C8.1425 1.6975 8.4725 0.7075 8.8125 -0.3125 C12.7725 -0.3125 16.7325 -0.3125 20.8125 -0.3125 C20.8125 2.3275 20.8125 4.9675 20.8125 7.6875 C7.8125 7.6875 7.8125 7.6875 3.8125 5.6875 C3.8125 6.3475 3.8125 7.0075 3.8125 7.6875 C1.1725 7.6875 -1.4675 7.6875 -4.1875 7.6875 C-4.875 5.375 -4.875 5.375 -5.1875 2.6875 C-3.60587179 0.1901923 -2.97595617 -0.4251366 0 0 Z " fill="#B39235" transform="translate(172.1875,70.3125)"/>
<path d="M0 0 C1.62490954 -0.02698189 3.24994633 -0.04638757 4.875 -0.0625 C5.77992188 -0.07410156 6.68484375 -0.08570312 7.6171875 -0.09765625 C10 0 10 0 12 1 C12 2.32 12 3.64 12 5 C12.66 3.35 13.32 1.7 14 0 C15.32 0.33 16.64 0.66 18 1 C18.93423645 4.01031744 19.04449911 4.86650268 18 8 C15.36 8 12.72 8 10 8 C10 7.34 10 6.68 10 6 C9.34 6 8.68 6 8 6 C8 6.66 8 7.32 8 8 C5.36 8 2.72 8 0 8 C0 5.36 0 2.72 0 0 Z M5 2 C5 2.99 5 3.98 5 5 C4.01 5.33 3.02 5.66 2 6 C3.32 6 4.64 6 6 6 C5.67 4.68 5.34 3.36 5 2 Z " fill="#B29134" transform="translate(194,70)"/>
<path d="M0 0 C2.5 0.3125 2.5 0.3125 5 1 C5.33 1.66 5.66 2.32 6 3 C6.99 2.01 7.98 1.02 9 0 C9.66 0.99 10.32 1.98 11 3 C11.66 2.01 12.32 1.02 13 0 C13.66 0.66 14.32 1.32 15 2 C15.33 1.34 15.66 0.68 16 0 C16.66 0 17.32 0 18 0 C18 2.64 18 5.28 18 8 C14 8 14 8 10.8125 7.4375 C9.884375 7.293125 8.95625 7.14875 8 7 C7.67 7.33 7.34 7.66 7 8 C4.32941149 8.14115161 1.67567762 8.04247107 -1 8 C-1.04241723 5.66705225 -1.04092937 3.33297433 -1 1 C-0.67 0.67 -0.34 0.34 0 0 Z " fill="#B69435" transform="translate(228,70)"/>
<path d="M0 0 C0.886875 0.185625 1.77375 0.37125 2.6875 0.5625 C5.89911402 0.98667544 7.88603644 0.65557128 11 0 C14.6 0.6 14.6 0.6 16 2 C16.04080783 3.99958364 16.04254356 6.00045254 16 8 C10.66666667 8 5.33333333 8 0 8 C0 5.36 0 2.72 0 0 Z M11 3 C11.33 3.99 11.66 4.98 12 6 C12 5.34 12 4.68 12 4 C12.66 3.67 13.32 3.34 14 3 C13.01 3 12.02 3 11 3 Z " fill="#B29033" transform="translate(149,70)"/>
<path d="M0 0 C2.475 0.495 2.475 0.495 5 1 C5 2.65 5 4.3 5 6 C5.99 6 6.98 6 8 6 C8 4.02 8 2.04 8 0 C12.875 0.875 12.875 0.875 14 2 C14.125 4.5 14.125 4.5 14 7 C13 8 13 8 10.05859375 8.09765625 C8.26615234 8.08025391 8.26615234 8.08025391 6.4375 8.0625 C4.64119141 8.04896484 4.64119141 8.04896484 2.80859375 8.03515625 C1.88175781 8.02355469 0.95492187 8.01195313 0 8 C0 5.36 0 2.72 0 0 Z M10 3 C10 3.99 10 4.98 10 6 C10.66 6 11.32 6 12 6 C12 5.01 12 4.02 12 3 C11.34 3 10.68 3 10 3 Z " fill="#B69436" transform="translate(134,70)"/>
<path d="M0 0 C1.485 0.99 1.485 0.99 3 2 C3.33 1.34 3.66 0.68 4 0 C4.99 0.33 5.98 0.66 7 1 C8.33568021 0.67619874 9.66923011 0.34342449 11 0 C11.66 0.33 12.32 0.66 13 1 C13 3.31 13 5.62 13 8 C8.66666667 8 4.33333333 8 0 8 C0 5.36 0 2.72 0 0 Z " fill="#B39235" transform="translate(256,70)"/>
<path d="M0 0 C1.1446875 0.2784375 1.1446875 0.2784375 2.3125 0.5625 C5.08967375 1.22819173 5.08967375 1.22819173 8 0 C8 1.98 8 3.96 8 6 C8.66 6 9.32 6 10 6 C10 4.02 10 2.04 10 0 C10.66 0 11.32 0 12 0 C12 2.64 12 5.28 12 8 C8.04 8 4.08 8 0 8 C0 5.36 0 2.72 0 0 Z " fill="#B59335" transform="translate(121,70)"/>
<path d="M0 0 C1.11375 0.2475 1.11375 0.2475 2.25 0.5 C5.19006578 1.11925696 5.19006578 1.11925696 9 1 C9 3.31 9 5.62 9 8 C8.443125 7.814375 7.88625 7.62875 7.3125 7.4375 C4.600867 6.92448835 2.65628961 7.3359276 0 8 C0 5.36 0 2.72 0 0 Z " fill="#B69436" transform="translate(216,70)"/>
<path d="M0 0 C2.66666667 0 5.33333333 0 8 0 C8 2.64 8 5.28 8 8 C7.236875 7.814375 6.47375 7.62875 5.6875 7.4375 C2.91032625 6.77180827 2.91032625 6.77180827 0 8 C0 5.36 0 2.72 0 0 Z M5 2 C5 3.32 5 4.64 5 6 C5.33 4.68 5.66 3.36 6 2 C5.67 2 5.34 2 5 2 Z " fill="#AB8B32" transform="translate(247,70)"/>
<path d="M0 0 C-1.25844278 3.88019859 -2.42416203 5.9411842 -6 8 C-6.99 8 -7.98 8 -9 8 C-8.64005447 5.3364031 -8.28838998 3.41816548 -6.75 1.1875 C-4.41988723 -0.39364795 -2.75498245 -0.22337696 0 0 Z " fill="#B28F2B" transform="translate(37,3)"/>
<path d="M0 0 C1.65 0 3.3 0 5 0 C6.43088528 2.86177057 5.59991697 4.93375773 5 8 C3.35 8 1.7 8 0 8 C0 5.36 0 2.72 0 0 Z " fill="#BA9738" transform="translate(194,70)"/>
<path d="M0 0 C1.32 0 2.64 0 4 0 C4 2.64 4 5.28 4 8 C2.68 7.67 1.36 7.34 0 7 C0.66 7 1.32 7 2 7 C1.67 5.68 1.34 4.36 1 3 C0.34 3 -0.32 3 -1 3 C-0.67 2.01 -0.34 1.02 0 0 Z " fill="#B99738" transform="translate(251,70)"/>
<path d="M0 0 C1.32 0 2.64 0 4 0 C4 1.65 4 3.3 4 5 C2.68 5.33 1.36 5.66 0 6 C0 4.02 0 2.04 0 0 Z " fill="#2A3E67" transform="translate(62,48)"/>
<path d="M0 0 C1.32 0 2.64 0 4 0 C3.67 1.65 3.34 3.3 3 5 C2.01 5 1.02 5 0 5 C0 3.35 0 1.7 0 0 Z " fill="#293D65" transform="translate(62,38)"/>
<path d="M0 0 C0.99 0.99 1.98 1.98 3 3 C2.67 3.99 2.34 4.98 2 6 C0.68 5.67 -0.64 5.34 -2 5 C-1.34 3.35 -0.68 1.7 0 0 Z " fill="#A88A30" transform="translate(236,70)"/>
<path d="M0 0 C0.66 0.99 1.32 1.98 2 3 C-0.36292656 5.52588702 -1.66462511 6.88820837 -5 8 C-3.62845496 5.04590299 -2.01136276 2.55991624 0 0 Z " fill="#9F7B21" transform="translate(27,9)"/>
</svg>
